<?xml version="1.0" encoding="utf-8"?>
<!-- Generator: Adobe Illustrator 17.0.0, SVG Export Plug-In . SVG Version: 6.00 Build 0)  -->
<!DOCTYPE svg PUBLIC "-//W3C//DTD SVG 1.1//EN" "http://www.w3.org/Graphics/SVG/1.1/DTD/svg11.dtd">
<svg version="1.1" id="Layer_1" xmlns="http://www.w3.org/2000/svg" xmlns:xlink="http://www.w3.org/1999/xlink" x="0px" y="0px"
	 width="200px" height="56px" viewBox="0 0 200 56" enable-background="new 0 0 200 56" xml:space="preserve">
<g>
	<path fill="#22201E" d="M63.873,9.261h11.559v2.833h-8.258v3.443h6.384v2.854h-6.384v4.129h8.443v2.833H63.873V9.261z"/>
	<path fill="#22201E" d="M77.796,9.239h3.279v8.813h0.446c0.167,0,0.32-0.026,0.458-0.077c0.138-0.05,0.269-0.152,0.392-0.305
		l3.639-4.238l2.473,1.95l-3.573,3.878l4.336,4.488l-2.375,2.048l-4.14-4.303c-0.211-0.211-0.394-0.372-0.55-0.485
		c-0.156-0.112-0.361-0.169-0.615-0.169h-0.49v4.51h-3.279V9.239z"/>
</g>
<g>
	<path fill="#22201E" d="M101.184,24.709c-0.596,0.255-1.308,0.488-2.135,0.703c-0.828,0.214-1.739,0.321-2.734,0.321
		c-1.148,0-2.119-0.149-2.915-0.446c-0.795-0.298-1.442-0.716-1.939-1.253c-0.498-0.538-0.857-1.173-1.079-1.907
		s-0.332-1.54-0.332-2.419c0-0.792,0.125-1.554,0.376-2.288c0.25-0.734,0.63-1.384,1.138-1.95c0.508-0.566,1.126-1.016,1.852-1.351
		c0.726-0.334,1.573-0.501,2.538-0.501c0.908,0,1.69,0.142,2.348,0.425c0.657,0.283,1.2,0.688,1.628,1.215
		c0.428,0.527,0.748,1.166,0.958,1.918c0.211,0.752,0.316,1.589,0.316,2.511l-0.937,0.894h-6.721
		c0.029,0.712,0.309,1.291,0.839,1.737c0.53,0.447,1.271,0.67,2.223,0.67c0.566,0,1.147-0.067,1.743-0.202
		c0.595-0.134,1.249-0.328,1.961-0.583L101.184,24.709z M97.763,18.434c-0.015-0.755-0.2-1.305-0.556-1.65
		c-0.356-0.345-0.795-0.517-1.318-0.517c-0.625,0-1.151,0.205-1.58,0.615c-0.429,0.41-0.668,0.928-0.719,1.552H97.763z"/>
	<path fill="#22201E" d="M104.135,16.647h-1.514V14h3.508l0.447,1.046c0.581-0.443,1.123-0.766,1.629-0.969
		c0.504-0.203,1.029-0.305,1.573-0.305c0.255,0,0.53,0.011,0.829,0.032c0.297,0.022,0.595,0.087,0.893,0.196l-0.49,2.626
		c-0.225-0.058-0.42-0.094-0.583-0.109c-0.163-0.014-0.369-0.021-0.616-0.021c-0.566,0-1.051,0.1-1.454,0.3
		c-0.403,0.2-0.718,0.405-0.942,0.615v7.942h-3.28V16.647z"/>
	<path fill="#22201E" d="M113.974,23.968c-0.494-0.552-0.859-1.196-1.095-1.933c-0.236-0.737-0.354-1.527-0.354-2.37
		c0-0.85,0.129-1.643,0.387-2.38c0.257-0.737,0.637-1.376,1.138-1.918c0.501-0.541,1.118-0.968,1.852-1.28
		c0.734-0.313,1.583-0.469,2.549-0.469c1.024,0,1.91,0.156,2.658,0.469c0.748,0.312,1.36,0.739,1.836,1.28
		c0.475,0.541,0.828,1.18,1.057,1.918c0.229,0.737,0.343,1.53,0.343,2.38c0,0.85-0.122,1.642-0.365,2.375
		c-0.243,0.734-0.612,1.376-1.106,1.928s-1.108,0.984-1.841,1.297c-0.734,0.312-1.594,0.468-2.582,0.468
		c-1.024,0-1.903-0.156-2.637-0.468C115.081,24.953,114.468,24.52,113.974,23.968z M114.78,11.658
		c-0.298-0.371-0.446-0.803-0.446-1.297c0-0.508,0.152-0.94,0.457-1.297c0.305-0.355,0.752-0.533,1.34-0.533
		c0.566,0,1.002,0.178,1.308,0.533c0.305,0.356,0.458,0.788,0.458,1.297c0,0.509-0.153,0.937-0.458,1.286
		c-0.305,0.349-0.741,0.523-1.308,0.523C115.543,12.17,115.092,11.999,114.78,11.658z M118.451,23.053
		c1.678,0,2.52-1.129,2.528-3.388c0-2.244-0.843-3.366-2.528-3.366c-1.714,0-2.568,1.122-2.56,3.366
		C115.884,21.924,116.738,23.053,118.451,23.053z M119.748,11.658c-0.284-0.342-0.425-0.774-0.425-1.297
		c0-0.508,0.141-0.94,0.425-1.297c0.283-0.355,0.737-0.533,1.361-0.533c0.581,0,1.021,0.178,1.318,0.533
		c0.298,0.356,0.447,0.788,0.447,1.297c0,0.509-0.149,0.937-0.447,1.286c-0.298,0.349-0.737,0.523-1.318,0.523
		C120.499,12.17,120.046,11.999,119.748,11.658z"/>
</g>
<g>
	<path fill="#22201E" d="M63.873,29.502h6.363c0.769,0,1.491,0.074,2.162,0.223c0.672,0.149,1.256,0.387,1.754,0.713
		c0.498,0.327,0.888,0.752,1.171,1.275c0.283,0.523,0.425,1.148,0.425,1.874c0,0.4-0.053,0.772-0.158,1.117
		c-0.105,0.346-0.247,0.66-0.424,0.942c-0.178,0.284-0.378,0.536-0.599,0.757c-0.222,0.222-0.452,0.412-0.692,0.572
		c0.356,0.131,0.693,0.309,1.013,0.534c0.32,0.225,0.606,0.497,0.861,0.817c0.254,0.32,0.456,0.684,0.605,1.095
		c0.149,0.411,0.223,0.87,0.223,1.378c0,0.77-0.138,1.452-0.414,2.048s-0.663,1.099-1.16,1.509
		c-0.498,0.411-1.093,0.719-1.787,0.926c-0.694,0.207-1.458,0.31-2.293,0.31h-7.049V29.502z M69.963,35.973
		c0.668,0,1.235-0.141,1.7-0.425c0.465-0.284,0.697-0.773,0.697-1.471c0-0.726-0.247-1.206-0.741-1.438s-1.231-0.349-2.211-0.349
		h-2.233v3.683H69.963z M70.617,42.804c0.683,0,1.269-0.159,1.759-0.479s0.735-0.85,0.735-1.591c0-0.414-0.078-0.761-0.234-1.04
		c-0.156-0.28-0.369-0.497-0.637-0.654c-0.268-0.156-0.588-0.263-0.958-0.321c-0.371-0.058-0.763-0.088-1.177-0.088h-2.931v4.172
		H70.617z"/>
</g>
<g>
	<path fill="#22201E" d="M86.325,44.972c-0.385,0.225-0.902,0.448-1.552,0.67c-0.65,0.221-1.36,0.332-2.13,0.332
		c-0.61,0-1.18-0.067-1.71-0.201c-0.53-0.135-0.992-0.347-1.384-0.638c-0.392-0.29-0.705-0.666-0.937-1.127
		c-0.233-0.461-0.349-1.026-0.349-1.694c0-0.683,0.131-1.262,0.392-1.738c0.262-0.475,0.612-0.858,1.051-1.149
		c0.44-0.29,0.933-0.499,1.482-0.626c0.548-0.127,1.113-0.191,1.694-0.191h2.386v-0.403c0-0.624-0.171-1.068-0.512-1.329
		c-0.342-0.262-0.81-0.393-1.405-0.393c-0.458,0-0.928,0.039-1.411,0.114c-0.483,0.077-1.098,0.242-1.846,0.496l-0.872-2.364
		c0.624-0.24,1.316-0.445,2.075-0.616c0.759-0.17,1.592-0.256,2.5-0.256c0.952,0,1.732,0.111,2.342,0.332s1.091,0.538,1.443,0.947
		c0.352,0.411,0.594,0.903,0.724,1.477c0.131,0.574,0.196,1.217,0.196,1.928v4.347l1.101,1.59l-2.321,1.624L86.325,44.972z
		 M85.323,40.865h-2.212c-0.48,0-0.857,0.118-1.133,0.353c-0.276,0.236-0.414,0.565-0.414,0.986c0,0.458,0.138,0.803,0.414,1.035
		c0.276,0.233,0.668,0.349,1.176,0.349c0.443,0,0.841-0.061,1.193-0.18c0.352-0.12,0.677-0.278,0.975-0.474V40.865z"/>
	<path fill="#22201E" d="M91.935,36.889h-1.514v-2.648h3.508l0.447,1.046c0.581-0.443,1.124-0.766,1.628-0.969
		c0.505-0.204,1.029-0.305,1.574-0.305c0.254,0,0.53,0.011,0.828,0.033c0.298,0.022,0.595,0.088,0.894,0.196l-0.491,2.626
		c-0.225-0.058-0.419-0.094-0.583-0.109c-0.164-0.014-0.369-0.022-0.615-0.022c-0.567,0-1.051,0.1-1.454,0.3
		c-0.403,0.2-0.718,0.406-0.942,0.616v7.942h-3.279V36.889z"/>
	<path fill="#22201E" d="M100.967,37.008l-0.806-2.124l2.789-1.275l0.654,1.166c0.522-0.254,1.058-0.47,1.606-0.649
		c0.549-0.178,1.201-0.267,1.955-0.267c0.835,0,1.54,0.114,2.114,0.343c0.574,0.229,1.035,0.549,1.384,0.958
		c0.348,0.411,0.597,0.89,0.746,1.438c0.149,0.549,0.223,1.135,0.223,1.76v7.233h-3.279V38.61c0-0.726-0.141-1.234-0.425-1.525
		c-0.284-0.291-0.723-0.436-1.318-0.436c-0.458,0-0.877,0.054-1.258,0.163c-0.382,0.109-0.751,0.247-1.106,0.414v8.367h-3.279
		V37.008z"/>
</g>
<g>
	<path fill="#22201E" d="M113.009,34.732l3.116-0.806l2.614,8.431c0.072,0.225,0.158,0.374,0.256,0.447
		c0.098,0.073,0.213,0.109,0.343,0.109c0.146,0,0.267-0.04,0.365-0.12c0.098-0.08,0.187-0.232,0.267-0.457l2.538-8.41l3.17,0.806
		l-2.767,8.606c-0.268,0.85-0.681,1.502-1.236,1.955c-0.556,0.454-1.35,0.681-2.381,0.681c-1.01,0-1.79-0.231-2.342-0.692
		c-0.553-0.461-0.959-1.109-1.221-1.944L113.009,34.732z"/>
</g>
<g>
	<path fill="#22201E" d="M134.473,44.972c-0.385,0.225-0.903,0.448-1.553,0.67c-0.65,0.221-1.36,0.332-2.13,0.332
		c-0.61,0-1.18-0.067-1.711-0.201c-0.53-0.135-0.991-0.347-1.383-0.638c-0.392-0.29-0.704-0.666-0.937-1.127
		c-0.232-0.461-0.348-1.026-0.348-1.694c0-0.683,0.13-1.262,0.392-1.738c0.262-0.475,0.612-0.858,1.052-1.149
		c0.439-0.29,0.933-0.499,1.482-0.626c0.548-0.127,1.112-0.191,1.694-0.191h2.386v-0.403c0-0.624-0.171-1.068-0.512-1.329
		c-0.342-0.262-0.81-0.393-1.405-0.393c-0.458,0-0.928,0.039-1.411,0.114c-0.483,0.077-1.099,0.242-1.847,0.496l-0.872-2.364
		c0.625-0.24,1.317-0.445,2.076-0.616c0.759-0.17,1.592-0.256,2.501-0.256c0.951,0,1.732,0.111,2.342,0.332
		c0.611,0.221,1.091,0.538,1.444,0.947c0.353,0.411,0.594,0.903,0.724,1.477c0.13,0.574,0.196,1.217,0.196,1.928v4.347l1.101,1.59
		l-2.321,1.624L134.473,44.972z M133.47,40.865h-2.211c-0.48,0-0.857,0.118-1.133,0.353c-0.276,0.236-0.414,0.565-0.414,0.986
		c0,0.458,0.138,0.803,0.414,1.035c0.276,0.233,0.668,0.349,1.177,0.349c0.443,0,0.841-0.061,1.192-0.18
		c0.353-0.12,0.677-0.278,0.975-0.474V40.865z"/>
	<path fill="#22201E" d="M139.44,29.481h3.28v8.813h0.447c0.167,0,0.319-0.025,0.458-0.077c0.137-0.05,0.268-0.152,0.392-0.305
		l3.638-4.238l2.473,1.95l-3.572,3.878l4.336,4.489l-2.375,2.048l-4.14-4.304c-0.211-0.21-0.394-0.372-0.55-0.485
		s-0.361-0.168-0.615-0.168h-0.491v4.51h-3.28V29.481z"/>
	<path fill="#22201E" d="M153.025,36.889h-1.514v-2.648h1.514v-3.148h3.214v3.148h3.387v2.648h-3.387v4.826
		c0,0.61,0.148,1.022,0.446,1.236c0.298,0.215,0.661,0.321,1.09,0.321c0.284,0,0.592-0.025,0.926-0.077
		c0.334-0.05,0.74-0.137,1.22-0.261l0.599,2.44c-0.21,0.072-0.452,0.146-0.724,0.218c-0.273,0.072-0.561,0.136-0.866,0.191
		c-0.305,0.054-0.618,0.099-0.937,0.135c-0.32,0.037-0.621,0.055-0.904,0.055c-0.61,0-1.164-0.067-1.661-0.201
		c-0.497-0.135-0.926-0.351-1.286-0.649c-0.359-0.298-0.635-0.688-0.828-1.171c-0.193-0.483-0.289-1.08-0.289-1.792V36.889z"/>
	<path fill="#22201E" d="M169.345,32.389c0.146-0.508,0.327-0.96,0.545-1.356c0.218-0.395,0.486-0.726,0.806-0.991
		c0.319-0.265,0.709-0.469,1.171-0.61c0.461-0.142,1.004-0.213,1.628-0.213c0.61,0,1.132,0.067,1.563,0.202
		c0.432,0.135,0.798,0.331,1.095,0.588c0.298,0.257,0.546,0.574,0.746,0.947c0.199,0.374,0.372,0.798,0.517,1.27l3.911,12.964
		l-3.344,0.74l-1.46-4.913h-6.33l-1.471,4.913l-3.257-0.74L169.345,32.389z M175.707,38.185l-1.525-5.381
		c-0.087-0.298-0.198-0.494-0.332-0.588c-0.135-0.094-0.289-0.141-0.463-0.141c-0.196,0-0.358,0.052-0.485,0.157
		c-0.127,0.106-0.235,0.296-0.321,0.572l-1.613,5.381H175.707z"/>
	<path fill="#22201E" d="M183.127,29.502h6.362c0.77,0,1.491,0.074,2.162,0.223c0.672,0.149,1.257,0.387,1.754,0.713
		c0.497,0.327,0.888,0.752,1.171,1.275c0.284,0.523,0.425,1.148,0.425,1.874c0,0.4-0.053,0.772-0.158,1.117
		c-0.105,0.346-0.247,0.66-0.425,0.942c-0.178,0.284-0.378,0.536-0.599,0.757c-0.221,0.222-0.452,0.412-0.692,0.572
		c0.356,0.131,0.693,0.309,1.013,0.534c0.32,0.225,0.607,0.497,0.861,0.817c0.254,0.32,0.456,0.684,0.605,1.095
		c0.148,0.411,0.223,0.87,0.223,1.378c0,0.77-0.138,1.452-0.414,2.048s-0.663,1.099-1.16,1.509
		c-0.497,0.411-1.093,0.719-1.786,0.926c-0.694,0.207-1.458,0.31-2.294,0.31h-7.048V29.502z M189.217,35.973
		c0.668,0,1.234-0.141,1.699-0.425c0.465-0.284,0.697-0.773,0.697-1.471c0-0.726-0.247-1.206-0.74-1.438
		c-0.494-0.232-1.231-0.349-2.212-0.349h-2.233v3.683H189.217z M189.869,42.804c0.683,0,1.27-0.159,1.76-0.479
		c0.49-0.32,0.735-0.85,0.735-1.591c0-0.414-0.078-0.761-0.235-1.04c-0.156-0.28-0.369-0.497-0.637-0.654
		c-0.269-0.156-0.588-0.263-0.959-0.321c-0.37-0.058-0.762-0.088-1.176-0.088h-2.931v4.172H189.869z"/>
</g>
<path fill-rule="evenodd" clip-rule="evenodd" fill="#FBBE23" d="M17.116,31.087c9.2-0.595-4.312-6.479,11.171-19.65
	c2.826,1.596,5.443,5.68,7.011,8.275c4.488,7.429-0.579,5.113,1.909,11.213c6.372,0.662,2.966-3.143,5.507-6.833
	c1.359-1.974,5.491-3.743,8.775-3.599c-4.406,6.209-6.417,11.766-8.532,19.97c-7.699-0.69-24.295-6.508-28.874,1.365
	c2.125,7.107,18.175,6.603,19.479,3.776c-3.747-1.794-10.588-0.109-15.368-2.832c7.273-5.484,19.958,1.076,27.138,1.849
	c2.157-4.122,2.38-10.244,4.153-14.75c1.894-4.815,5.66-9.032,5.987-12.331c-7.287-1.985-11.027,2.668-15.498,4.006
	c-3.381-6.667-5.913-10.643-10.739-14.455c-6.254,2.167-8.17,9.13-12.309,14.671c-4.732-1.91-7.741-4.931-15.199-4.299
	c0.007,3.897,3.893,8.298,5.476,12.36c1.519,3.896,1.942,10.041,4.042,12.902c4.809-5.778-2.973-16.936-4.553-21.814
	C17.708,21.72,13.8,27.217,17.116,31.087"/>
</svg>
